<svg width="552" height="253" viewBox="0 0 552 253" fill="none" xmlns="http://www.w3.org/2000/svg">
<path d="M547.141 37.2041C547.731 41.2471 546.721 50.0029 543.731 52.9209C538.201 58.3199 529.071 52.0224 522.271 52.8174C516.021 53.5494 514.711 56.3307 511.02 60.9316C519.29 65.5286 526.56 71.1841 531.53 79.3809C536.82 87.9519 538.44 98.2894 536.03 108.068C526.93 144.373 479.684 149.755 449.038 141.61C442.333 144.26 434.899 147.437 432.906 154.95C432.381 156.928 431.825 161.081 433.348 162.582C447.889 176.917 479.042 165.488 498.056 167.342C507.239 167.394 515.371 168.165 524.291 170.681C543.301 174.658 556.951 195.433 549.751 214.377C534.551 254.4 470.467 258.325 435.341 247.062C425.029 243.756 413.022 237.541 408.481 227.798C400.877 211.486 410.417 201.526 424.731 195.004C431.87 192.289 437.403 190.978 444.798 189.519C437.53 194.637 431.883 198.235 427.594 206.346C419.773 221.135 428.434 235.405 442.566 241.97C463.653 251.502 486.926 249.386 508.319 242.934C525.24 237.831 540.011 220.165 532.801 202.755C522.651 178.233 474.693 189.116 454.279 188.123C442.23 187.536 422.237 184.691 417.098 171.804C415.332 167.357 415.421 162.387 417.346 158.007C421.717 148.087 434.445 143.32 443.829 139.643C431.7 134.496 421.263 128.358 415.344 115.818C411.043 106.576 410.588 96.0028 414.079 86.4248C424.902 56.3732 466.207 47.0301 494.142 54.582C498.296 55.706 502.255 57.1137 506.29 58.5977C518.281 42.2547 526.691 41.2452 545.751 36.8672L547.141 37.2041ZM481.399 140.238C528.491 131.884 523.051 51.956 468.466 57.252C458.771 59.327 447.367 64.3567 442.794 73.4336C425.879 107.007 441.211 144.056 481.399 140.238Z" fill="white"/>
<path d="M334.869 52.0435C347.144 51.5695 362.516 55.0245 371.632 63.7395C385.946 77.4215 383.842 98.7205 383.743 116.793L383.501 158.582C383.463 165.861 382.591 176.009 386.885 182.137C389.25 185.51 397.211 186.181 401.395 186.894C390.916 188.447 355.991 187.585 343.88 187.373C350.502 185.244 358.639 185.895 359.685 177.012C360.811 167.458 360.461 157.673 360.466 148.055L360.445 100.15C360.372 89.5935 359.591 73.6775 351.027 66.5445C331.111 49.9535 307.331 60.8725 292.356 77.2305C286.343 85.2065 285.066 86.5595 285.108 96.7385C285.21 121.382 284.686 146.058 285.276 170.694C285.612 184.726 290.401 184.628 302.141 186.962C291.645 188.286 255.458 187.756 244.59 187.132C250.695 185.376 260.504 185.155 261.089 177.009C263.038 149.873 261.473 122.135 262.033 94.8995C262.163 88.5455 262.417 79.2675 261.668 73.2245C261.404 71.0685 260.549 69.0275 259.197 67.3275C254.895 61.8795 251.733 64.5695 248.835 62.6125C254.172 59.6065 276.677 54.9085 285.086 51.8125C285.243 61.1625 285.5 70.4055 285.018 79.7515C298.057 60.0825 312.267 54.3025 334.869 52.0435Z" fill="white"/>
<path d="M20.732 0L160.806 0.026001C151.864 13.93 139.933 30.113 130.271 43.762L72.701 124.68C62.139 139.539 50.713 154.403 41.175 169.928C39.768 172.219 36.893 176.807 37.157 179.576C37.247 180.518 37.144 180.281 38.011 180.867C42.691 184.033 109.002 183.235 119.787 182.624C125.733 182.286 131.83 181.656 137.608 180.177C149.916 177.028 156.281 170.203 162.567 159.693C159.994 168.694 157.139 177.007 154.106 185.841C153.872 186.356 152.994 187.561 152.594 187.564C119.748 187.777 27.398 187.658 0 187.632C8.81 173.915 22.662 155.705 32.325 142.205L91.083 59.809C98.262 49.751 120.856 19.488 124.322 10.394C122.809 6.53601 118.21 4.55299 114.29 4.76599C88.396 6.16899 61.585 3.13699 35.961 6.35999C24.178 7.84299 17.729 14.698 11.579 23.815C13.986 15.951 17.422 7.515 20.732 0Z" fill="white"/>
<path d="M214.041 52.4961C214.093 52.5051 214.149 52.5001 214.197 52.5221C214.197 52.5221 215.523 53.2111 215.531 53.2241C216.804 55.4231 215.773 65.7711 215.769 68.7711C215.75 84.7901 213.671 173.975 217.766 180.864C220.339 185.191 227.717 186.201 232.226 187.386C215.827 187.936 197.793 187.593 181.273 187.603C180.551 187.596 179.494 187.335 178.749 187.188C179.624 185.331 191.579 185.153 191.803 175.274C192.555 142.236 192.44 109.025 191.944 75.9761C191.771 64.4191 185.588 63.4871 175.926 62.5351C187.472 60.5071 203.074 56.3491 214.041 52.4961Z" fill="white"/>
<path d="M199.706 2.62801C207.625 0.440011 215.809 5.12301 217.939 13.059C220.068 20.995 215.327 29.148 207.377 31.219C199.509 33.27 191.461 28.587 189.353 20.732C187.246 12.877 191.869 4.79301 199.706 2.62801Z" fill="white"/>
</svg>
